# xmcd
#
# Track frame offsets:
#	150
#	21164
#	39618
#	67944
#	100094
#	128351
#	150869
#	172428
#	206407
#	227802
#	257315
#	289902
#	303020
#
# Disc length: 4407 seconds
#
# Revision: 1
# Processed by: cddbd v1.5.1PL2 Copyright (c) Steve Scherf et al.
# Submitted via: audiograbber 1.83.01
#
DISCID=9f11350d
DTITLE=Nobby Reed - Live at the Harpoon BBQ Fest
DYEAR=1900
DGENRE=Blues
TTITLE0=It's A Sin
TTITLE1=Blues Train
TTITLE2=Blues Bug
TTITLE3=At The Bottom
TTITLE4=Allmen Are Created Equal
TTITLE5=The Rev
TTITLE6=How You Feel
TTITLE7=I'm Cryin' Too
TTITLE8=Only One
TTITLE9=Condition Blue
TTITLE10=Poor Man's Blues
TTITLE11=Nobby's Boogie
TTITLE12=Good Times
EXTD=
EXTT0=
EXTT1=
EXTT2=
EXTT3=
EXTT4=
EXTT5=
EXTT6=
EXTT7=
EXTT8=
EXTT9=
EXTT10=
EXTT11=
EXTT12=
PLAYORDER=
